{
  "accessors": [
    {
      "bufferView": 2,
      "componentType": 5126,
      "count": 817,
      "max": [
        36.45349884033203,
        3.571199893951416,
        181.8782958984375
      ],
      "min": [
        -36.45349884033203,
        -3.571199893951416,
        54.09109878540039
      ],
      "type": "VEC3"
    },
    {
      "bufferView": 2,
      "byteOffset": 9804,
      "componentType": 5126,
      "count": 817,
      "max": [
        0.9991260170936584,
        0.9999812841415405,
        1.0
      ],
      "min": [
        -0.9991260170936584,
        -0.9999812841415405,
        -1.0
      ],
      "type": "VEC3"
    },
    {
      "bufferView": 1,
      "componentType": 5126,
      "count": 817,
      "max": [
        0.916700005531311,
        0.8999999761581421
      ],
      "min": [
        -0.08330000191926956,
        0.0
      ],
      "type": "VEC2"
    },
    {
      "bufferView": 0,
      "componentType": 5125,
      "count": 4596,
      "type": "SCALAR"
    },
    {
      "bufferView": 2,
      "byteOffset": 19608,
      "componentType": 5126,
      "count": 350,
      "max": [
        34.0984001159668,
        0.25,
        179.1811981201172
      ],
      "min": [
        -33.535099029541016,
        -0.25,
        89.11669921875
      ],
      "type": "VEC3"
    },
    {
      "bufferView": 2,
      "byteOffset": 23808,
      "componentType": 5126,
      "count": 350,
      "max": [
        1.0,
        1.0,
        1.0
      ],
      "min": [
        -1.0,
        -1.0,
        -1.0
      ],
      "type": "VEC3"
    },
    {
      "bufferView": 1,
      "byteOffset": 6536,
      "componentType": 5126,
      "count": 350,
      "max": [
        0.75,
        1.0
      ],
      "min": [
        -0.25,
        0.0
      ],
      "type": "VEC2"
    },
    {
      "bufferView": 0,
      "byteOffset": 18384,
      "componentType": 5125,
      "count": 840,
      "type": "SCALAR"
    },
    {
      "bufferView": 2,
      "byteOffset": 28008,
      "componentType": 5126,
      "count": 95,
      "max": [
        5.770899772644043,
        5.201700210571289,
        54.29629898071289
      ],
      "min": [
        -5.770899772644043,
        -5.201700210571289,
        -0.0
      ],
      "type": "VEC3"
    },
    {
      "bufferView": 2,
      "byteOffset": 29148,
      "componentType": 5126,
      "count": 95,
      "max": [
        0.9792935848236084,
        0.9792935848236084,
        1.0
      ],
      "min": [
        -0.9792935848236084,
        -0.9792935848236084,
        -1.0
      ],
      "type": "VEC3"
    },
    {
      "bufferView": 1,
      "byteOffset": 9336,
      "componentType": 5126,
      "count": 95,
      "max": [
        0.8655999898910522,
        1.0
      ],
      "min": [
        -0.12460000067949295,
        -0.0
      ],
      "type": "VEC2"
    },
    {
      "bufferView": 0,
      "byteOffset": 21744,
      "componentType": 5125,
      "count": 480,
      "type": "SCALAR"
    }
  ],
  "asset": {
    "extras": {
      "author": "turtlemode (https://sketchfab.com/turtlemode)",
      "license": "CC-BY-4.0 (http://creativecommons.org/licenses/by/4.0/)",
      "source": "https://sketchfab.com/3d-models/tennis-racket-a79f01ba56774f61bbe5a3196e2d7cf4",
      "title": "Tennis racket"
    },
    "generator": "Sketchfab-12.65.0",
    "version": "2.0"
  },
  "bufferViews": [
    {
      "buffer": 0,
      "byteLength": 23664,
      "name": "floatBufferViews",
      "target": 34963
    },
    {
      "buffer": 0,
      "byteLength": 10096,
      "byteOffset": 23664,
      "byteStride": 8,
      "name": "floatBufferViews",
      "target": 34962
    },
    {
      "buffer": 0,
      "byteLength": 30288,
      "byteOffset": 33760,
      "byteStride": 12,
      "name": "floatBufferViews",
      "target": 34962
    }
  ],
  "buffers": [
    {
      "byteLength": 64048,
      "uri": "scene.bin"
    }
  ],
  "materials": [
    {
      "doubleSided": true,
      "name": "HandleMat",
      "pbrMetallicRoughness": {
        "baseColorFactor": [
          0.0118,
          0.0118,
          0.0118,
          1.0
        ],
        "metallicFactor": 0.0,
        "roughnessFactor": 0.6385289634146342
      }
    },
    {
      "doubleSided": true,
      "name": "MainPlasticMat",
      "pbrMetallicRoughness": {
        "baseColorFactor": [
          0.4863,
          0.0314,
          0.0314,
          1.0
        ],
        "metallicFactor": 0.23342225609756098,
        "roughnessFactor": 0.43730945121951215
      }
    },
    {
      "alphaMode": "BLEND",
      "doubleSided": true,
      "name": "ThreadMat",
      "pbrMetallicRoughness": {
        "baseColorFactor": [
          0.6602515243902439,
          0.6602515243902439,
          0.6602515243902439,
          0.5261051829268293
        ],
        "metallicFactor": 0.0,
        "roughnessFactor": 0.5470655487804879
      }
    }
  ],
  "meshes": [
    {
      "name": "Object_0",
      "primitives": [
        {
          "attributes": {
            "NORMAL": 1,
            "POSITION": 0,
            "TEXCOORD_0": 2
          },
          "indices": 3,
          "material": 1,
          "mode": 4
        }
      ]
    },
    {
      "name": "Object_1",
      "primitives": [
        {
          "attributes": {
            "NORMAL": 5,
            "POSITION": 4,
            "TEXCOORD_0": 6
          },
          "indices": 7,
          "material": 2,
          "mode": 4
        }
      ]
    },
    {
      "name": "Object_2",
      "primitives": [
        {
          "attributes": {
            "NORMAL": 9,
            "POSITION": 8,
            "TEXCOORD_0": 10
          },
          "indices": 11,
          "material": 0,
          "mode": 4
        }
      ]
    }
  ],
  "nodes": [
    {
      "children": [
        1
      ],
      "matrix": [
        0.004047912469899023,
        4.373512106326669e-19,
        -0.001969654749235314,
        0.0,
        -0.001969654749235314,
        8.988171251498363e-19,
        -0.004047912469899023,
        0.0,
        0.0,
        0.004501681309193373,
        9.995740477982402e-19,
        0.0,
        3.068762453040108e-07,
        1.1865344470544154e-21,
        -5.343676093616523e-06,
        1.0
      ],
      "name": "Sketchfab_model"
    },
    {
      "children": [
        2,
        3,
        4
      ],
      "name": "06-12-19_tennis_racket_export_v1.obj.cleaner.materialmerger.gles"
    },
    {
      "mesh": 0,
      "name": "Object_2"
    },
    {
      "mesh": 1,
      "name": "Object_3"
    },
    {
      "mesh": 2,
      "name": "Object_4"
    }
  ],
  "scene": 0,
  "scenes": [
    {
      "name": "Sketchfab_Scene",
      "nodes": [
        0
      ]
    }
  ]
}
